<?xml version="1.0" encoding="UTF-8"?>
<svg id="Layer_2" data-name="Layer 2" xmlns="http://www.w3.org/2000/svg" viewBox="0 0 479.13 158.57">
  <defs>
    <style>
      .cls-1, .cls-2 {
        fill: #0a3c5d;
        font-family: AvertaDemoPE-ExtraBold, 'Averta Demo PE';
        font-size: 134.96px;
        font-weight: 700;
      }

      .cls-3 {
        letter-spacing: -.05em;
      }

      .cls-4, .cls-2 {
        letter-spacing: -.05em;
      }

      .cls-5 {
        fill: #f39e1e;
      }
    </style>
  </defs>
  <g id="Layer_1-2" data-name="Layer 1">
    <text class="cls-2" transform="translate(248.35 115.39)"><tspan x="0" y="0">vigo</tspan></text>
    <path class="cls-5" d="M123.38,66.21c-.49,8.61-.79,17.25-.72,25.83.2,5.8-.09,12.79,1.76,18.04.07.25.34.16-.45-.28-.41-.25-1.07-.16-1.26-.11,4.31-6.47,10.41-15.95,15.32-23.57,4.68-6.67,8.53-13.85,15.11-19.14.8-.47,1.59-1.16,3.81-1.43,2.36-.4,5.55,1.85,6.11,4.03.74,2.12.57,3.01.73,4.76,1.29,13.08,3.91,30.84,8.18,41.07-.89-1.11-3.97-1.62-5.38-.85-1.86.91-1.77,1.37-1.88,1.34,1.33-2.34,3.9-7.19,5.2-9.63,6.03-11.29,12.64-23.4,19.46-34.27,6.21-8.87,15.95-28.02,28.97-26.05,3.47.66,6.2,2.84,7.81,5.54,3.43,6.34,4.93,13.57,6.96,20.08,4.67,16.5,10.12,32.4,17.67,45.59,5.6,9.32,11.29,16.62,20.97,19.56,17.73,3.86,35.07-1.68,47.92-18.6,0,0,.78-.98,1.3-.77.91.36.77,1.55.77,1.55-1.45,19.66-18.65,34.92-38.09,38.66-15.64,3.92-34.41-3.98-44.34-16.77-19.31-23.25-21.07-53.72-28.49-80.4-.11-.28.02.04.14.18.1.12.37.57.65.8.93,1.42,4.65,2.45,6.05,1.72.7-.28.26-.19-.13.11-5.75,4.62-10.31,11.53-14.75,17.65-6.98,9.99-14.22,21.87-20.71,32.38-1.66,2.64-4.5,7.43-6.22,9.99-3.59,5.68-11.46,5.52-14.77-.88-1.99-3.7-2.71-7.31-3.55-11.04-2.18-11.05-3.27-21.96-3.73-33.15,0-1.05-.1-4.04-.07-5.07.03-.25-.05-.43.12.01.08.15.33.8,1.07,1.37.83.7,2.02.95,2.66.86,1.13-.16.94-.32.84-.21-2.03,1.33-4.05,3.71-5.83,5.73-8.38,9.85-15.47,20.46-23.67,30.73-1.31,1.74-4.15,5.13-7.23,3.66-1.78-.93-2.11-2.01-2.48-2.72-2.16-6.77-1.1-13.76-.85-20.58.65-8.71,1.66-17.32,2.87-25.92l2.19.23h0Z"/>
    <text class="cls-1" transform="translate(0 115.39)"><tspan class="cls-3" x="0" y="0">H</tspan><tspan class="cls-4" x="83.14" y="0">i</tspan></text>
  </g>
</svg>